<svg viewBox="0 0 420 154" fill="none" xmlns="http://www.w3.org/2000/svg">
<path d="M214.839 118.268C211.68 118.268 208.741 117.728 206.022 116.648C203.343 115.529 200.984 113.969 198.944 111.97C196.945 109.97 195.385 107.651 194.266 105.012C193.146 102.333 192.586 99.4535 192.586 96.3744C192.586 93.2954 193.146 90.4362 194.266 87.797C195.385 85.1179 196.945 82.7986 198.944 80.8392C200.944 78.8798 203.283 77.3602 205.962 76.2806C208.681 75.1609 211.62 74.6011 214.779 74.6011C218.138 74.6011 221.118 75.1409 223.717 76.2206C225.947 77.1332 227.935 78.3314 229.681 79.8154C230.208 80.2637 230.216 81.062 229.729 81.5537L225.223 86.1019C224.728 86.6016 223.921 86.5837 223.386 86.127C222.467 85.3426 221.418 84.6997 220.238 84.1981C218.678 83.5184 216.859 83.1785 214.779 83.1785C212.94 83.1785 211.241 83.4984 209.681 84.1382C208.161 84.738 206.842 85.6177 205.722 86.7774C204.643 87.937 203.783 89.3366 203.143 90.9761C202.543 92.6156 202.243 94.415 202.243 96.3744C202.243 98.3738 202.543 100.193 203.143 101.833C203.783 103.472 204.643 104.872 205.722 106.031C206.842 107.191 208.161 108.091 209.681 108.731C211.241 109.37 212.94 109.69 214.779 109.69C216.939 109.69 218.818 109.35 220.418 108.671C221.613 108.163 222.686 107.509 223.636 106.711C224.166 106.265 224.958 106.253 225.447 106.743L230.002 111.297C230.5 111.795 230.485 112.61 229.942 113.057C228.141 114.539 226.126 115.736 223.897 116.648C221.297 117.728 218.278 118.268 214.839 118.268Z" fill="black "/>
<path d="M181.411 117.608C180.727 117.608 180.172 117.053 180.172 116.369V76.4998C180.172 75.8155 180.727 75.2609 181.411 75.2609H188.35C189.034 75.2609 189.589 75.8155 189.589 76.4998V116.369C189.589 117.053 189.034 117.608 188.35 117.608H181.411Z" fill="black   "/>
<path d="M233.101 116.369C233.101 117.053 233.656 117.608 234.34 117.608H241.279C241.323 117.608 241.366 117.606 241.409 117.601C241.451 117.606 241.494 117.608 241.538 117.608H262.273C262.957 117.608 263.512 117.053 263.512 116.369V110.689C263.512 110.005 262.957 109.45 262.273 109.45H242.518V99.9134H260.174C260.858 99.9134 261.412 99.3587 261.412 98.6745V93.2946C261.412 92.6104 260.858 92.0557 260.174 92.0557H242.518V83.3584H261.973C262.657 83.3584 263.212 82.8037 263.212 82.1195V76.4998C263.212 75.8155 262.657 75.2609 261.973 75.2609H241.538C241.494 75.2609 241.451 75.2631 241.409 75.2675C241.366 75.2631 241.323 75.2609 241.279 75.2609H234.34C233.656 75.2609 233.101 75.8155 233.101 76.4998V116.369Z" fill="black "/>
<path fill-rule="evenodd" clip-rule="evenodd" d="M275.441 117.608C275.377 117.608 275.314 117.603 275.252 117.594C275.191 117.603 275.127 117.608 275.063 117.608H268.244C267.559 117.608 267.005 117.053 267.005 116.369V76.4998C267.005 75.8155 267.559 75.2609 268.244 75.2609H275.063C275.127 75.2609 275.191 75.2658 275.252 75.2752C275.314 75.2658 275.377 75.2609 275.441 75.2609H285.179C287.898 75.2609 290.198 75.7607 292.077 76.7604C293.997 77.7601 295.456 79.0997 296.456 80.7792C297.455 82.4587 297.955 84.3181 297.955 86.3575C297.955 88.9567 297.116 91.156 295.436 92.9555C294.713 93.7307 293.841 94.402 292.82 94.9695C294.251 95.6705 295.463 96.5587 296.456 97.6341C298.415 99.7134 299.395 102.273 299.395 105.312C299.395 107.631 298.815 109.73 297.655 111.61C296.536 113.449 294.896 114.909 292.737 115.988C290.618 117.068 288.058 117.608 285.059 117.608H275.441ZM276.302 110.29H284.16C285.999 110.29 287.439 109.75 288.478 108.671C289.518 107.591 290.038 106.271 290.038 104.712C290.038 103.632 289.798 102.673 289.318 101.833C288.838 100.993 288.158 100.333 287.279 99.8534C286.439 99.3735 285.399 99.1336 284.16 99.1336H276.302V110.29ZM283.38 91.9958H276.302V82.5786H283.38C284.939 82.5786 286.199 82.9785 287.159 83.7783C288.118 84.538 288.598 85.6977 288.598 87.2572C288.598 88.8567 288.118 90.0564 287.159 90.8561C286.199 91.6159 284.939 91.9958 283.38 91.9958Z" fill="black  "/>
<path d="M302.431 116.369C302.431 117.053 302.986 117.608 303.67 117.608H310.61C310.653 117.608 310.696 117.606 310.739 117.601C310.781 117.606 310.825 117.608 310.868 117.608H331.603C332.288 117.608 332.842 117.053 332.842 116.369V110.689C332.842 110.005 332.288 109.45 331.603 109.45H311.849V99.9134H329.504C330.188 99.9134 330.743 99.3587 330.743 98.6745V93.2946C330.743 92.6104 330.188 92.0557 329.504 92.0557H311.849V83.3584H331.303C331.988 83.3584 332.542 82.8037 332.542 82.1195V76.4998C332.542 75.8155 331.988 75.2609 331.303 75.2609H310.868C310.825 75.2609 310.781 75.2631 310.739 75.2675C310.696 75.2631 310.653 75.2609 310.61 75.2609H303.67C302.986 75.2609 302.431 75.8155 302.431 76.4998V116.369Z" fill="black   "/>
<path fill-rule="evenodd" clip-rule="evenodd" d="M345.752 116.369V100.153H346.989C346.998 100.385 347.073 100.619 347.224 100.827L358.997 117.095C359.23 117.417 359.603 117.608 360.001 117.608H368.019C369.045 117.608 369.627 116.432 369.004 115.617L356.959 99.8484C358.4 99.592 359.723 99.1738 360.928 98.5938C363.087 97.5541 364.767 96.1145 365.966 94.2751C367.166 92.3956 367.766 90.2163 367.766 87.7371C367.766 85.2978 367.166 83.1385 365.966 81.259C364.767 79.3796 363.107 77.9201 360.988 76.8804C358.868 75.8007 356.409 75.2609 353.61 75.2609H344.772C344.728 75.2609 344.685 75.2631 344.643 75.2675C344.6 75.2631 344.557 75.2609 344.513 75.2609H337.574C336.89 75.2609 336.335 75.8155 336.335 76.4998V116.369C336.335 117.053 336.89 117.608 337.574 117.608H344.513C345.198 117.608 345.752 117.053 345.752 116.369ZM352.47 93.1954H345.752V82.5786H352.53C354.41 82.5786 355.849 83.0785 356.849 84.0782C357.849 85.0779 358.348 86.3375 358.348 87.857C358.348 89.4965 357.829 90.7961 356.789 91.7558C355.789 92.7155 354.35 93.1954 352.47 93.1954Z" fill="black    "/>
<path d="M382.746 116.588C385.465 117.708 388.364 118.268 391.443 118.268C395.642 118.268 399.341 117.388 402.54 115.629C405.779 113.869 408.298 111.27 410.097 107.831C411.937 104.352 412.856 100.073 412.856 94.9949V94.8542C412.856 94.1699 412.302 93.6153 411.617 93.6153H391.842C391.158 93.6153 390.603 94.1699 390.603 94.8542V100.373C390.603 101.05 391.146 101.601 391.822 101.612L402.769 101.786C402.536 102.667 402.219 103.483 401.82 104.232C400.9 105.992 399.56 107.351 397.801 108.311C396.081 109.231 393.982 109.69 391.503 109.69C389.064 109.69 386.904 109.131 385.025 108.011C383.145 106.891 381.666 105.332 380.586 103.332C379.507 101.333 378.967 99.0136 378.967 96.3744C378.967 93.7352 379.507 91.4359 380.586 89.4765C381.706 87.4771 383.245 85.9376 385.205 84.8579C387.164 83.7383 389.384 83.1785 391.863 83.1785C394.182 83.1785 396.261 83.6183 398.101 84.4981C399.545 85.1887 400.841 86.1504 401.989 87.3832C402.498 87.9296 403.367 87.9894 403.895 87.4613L408.512 82.8442C408.967 82.3889 409.001 81.6574 408.557 81.191C406.729 79.2717 404.503 77.7348 401.88 76.5805C398.921 75.2609 395.622 74.6011 391.983 74.6011C388.824 74.6011 385.865 75.1609 383.105 76.2806C380.346 77.3602 377.927 78.8998 375.848 80.8992C373.808 82.8586 372.209 85.1579 371.049 87.797C369.889 90.4362 369.31 93.2954 369.31 96.3744C369.31 99.4535 369.869 102.333 370.989 105.012C372.149 107.651 373.728 109.97 375.728 111.97C377.727 113.929 380.066 115.469 382.746 116.588Z" fill="black   "/>
<path d="M56.2723 60.1769C50.9668 66.9233 50.9668 76.7978 50.9668 96.5468C50.9668 116.296 50.9668 126.17 56.2723 132.917C57.4898 134.465 58.8875 135.863 60.4357 137.08C61.0282 137.546 61.6449 137.971 62.2903 138.359L88.4058 80.7012C89.5411 78.1946 92.4165 76.9867 95.0013 77.9303L111.597 83.989C113.165 84.5613 114.368 85.8436 114.839 87.4445L130.038 139.062C131.162 138.501 132.201 137.846 133.175 137.08C134.724 135.863 136.121 134.465 137.339 132.917C142.644 126.17 142.644 116.296 142.644 96.5468C142.644 76.7978 142.644 66.9233 137.339 60.1769C136.121 58.6287 134.724 57.231 133.175 56.0135C126.429 50.708 116.554 50.708 96.8055 50.708C77.0566 50.708 67.1821 50.708 60.4357 56.0135C58.8875 57.231 57.4898 58.6287 56.2723 60.1769Z" fill="black "/>
</svg>
