<svg viewBox="0 0 420 154" fill="none" xmlns="http://www.w3.org/2000/svg">
<path d="M50.0391 100.727L75.4125 89.4336L90.017 97.9034L92.9674 125.69L74.97 125.542L77.6253 106.225L74.5274 104.441L59.3328 116.329L50.0391 100.727Z" fill="Black"/>
<path d="M91.6406 96.7137L114.064 113.208L122.915 97.3081L104.917 90.0271V86.4608L122.915 79.0312L114.064 63.2803L91.6406 79.7741V96.7137Z" fill="Black"/>
<path d="M90.017 78.4373L92.9674 50.6504L74.97 50.9476L77.6253 70.2647L74.5274 72.0478L59.1853 60.1604L50.0391 75.614L75.4125 86.9071L90.017 78.4373Z" fill="Black"/>
<path d="M182.958 84.8402V110.873H192.644V77.6968H178.538V84.8402H182.958Z" fill="Black"/>
<path d="M182.655 73.0353C183.543 73.9634 184.895 74.4275 186.711 74.4275C188.528 74.4275 189.859 73.9634 190.706 73.0353C191.595 72.0663 192.038 70.8555 192.038 69.4029C192.038 67.9094 191.595 66.6985 190.706 65.7705C189.859 64.8019 188.528 64.3174 186.711 64.3174C184.895 64.3174 183.543 64.8019 182.655 65.7705C181.808 66.6985 181.384 67.9094 181.384 69.4029C181.384 70.8555 181.808 72.0663 182.655 73.0353Z" fill="Black"/>
<path d="M149.238 110.146C151.982 111.397 155.352 112.023 159.347 112.023C163.101 112.023 166.329 111.438 169.034 110.267C171.738 109.097 173.816 107.462 175.269 105.364C176.763 103.224 177.509 100.742 177.509 97.9169C177.509 95.1726 176.804 92.8519 175.391 90.9547C174.018 89.0176 172.102 87.5041 169.639 86.4147C167.177 85.2843 164.332 84.578 161.103 84.2958L157.713 83.9931C155.695 83.8312 154.242 83.2868 153.354 82.3582C152.466 81.4301 152.022 80.3402 152.022 79.0894C152.022 78.1203 152.265 77.2327 152.748 76.4255C153.233 75.5778 153.959 74.912 154.928 74.4275C155.937 73.9434 157.168 73.7012 158.621 73.7012C160.154 73.7012 161.426 73.9834 162.435 74.5488C162.657 74.6683 162.868 74.796 163.066 74.9315L163.114 74.9651C163.188 75.0163 163.261 75.0694 163.332 75.123C163.945 75.5915 164.433 76.1467 164.796 76.7886C165.32 77.6768 165.584 78.6653 165.584 79.7552H175.269C175.269 76.8491 174.603 74.3266 173.272 72.1877C171.94 70.0083 170.023 68.3334 167.521 67.1626C165.058 65.9518 162.092 65.3464 158.621 65.3464C155.311 65.3464 152.446 65.9118 150.024 67.0417C147.603 68.1316 145.706 69.7056 144.334 71.7636C143.001 73.8221 142.335 76.2642 142.335 79.0894C142.335 83.004 143.648 86.152 146.271 88.5336C148.894 90.9148 152.406 92.2869 156.805 92.6501L160.135 92.9528C162.838 93.195 164.796 93.74 166.007 94.5872C167.217 95.3944 167.823 96.5043 167.823 97.9169C167.823 98.5662 167.717 99.175 167.504 99.7439C167.346 100.166 167.13 100.566 166.855 100.944C166.208 101.792 165.26 102.457 164.009 102.942C162.758 103.426 161.204 103.668 159.347 103.668C157.289 103.668 155.614 103.386 154.323 102.821C153.031 102.215 152.063 101.428 151.416 100.46C150.811 99.4909 150.509 98.4419 150.509 97.3115H140.883C140.883 100.177 141.589 102.72 143.001 104.94C144.414 107.119 146.493 108.855 149.238 110.146Z" fill="Black"/>
<path d="M214.256 111.296C210.906 111.296 208.202 110.893 206.144 110.085C204.085 109.238 202.572 107.846 201.603 105.909C200.675 103.931 200.211 101.267 200.211 97.9169V84.7798H195.186V77.6968H200.211V68.737H209.231V77.6968H218.918V84.7798H209.231V98.2805C209.231 99.8545 209.635 101.065 210.442 101.912C211.289 102.72 212.48 103.123 214.014 103.123H218.918V111.296H214.256Z" fill="Black"/>
<path fill-rule="evenodd" clip-rule="evenodd" d="M230.58 110.57C232.759 111.539 235.262 112.023 238.087 112.023C240.871 112.023 243.334 111.539 245.473 110.57C247.612 109.601 249.388 108.249 250.8 106.514C252.213 104.778 253.162 102.801 253.645 100.581H244.746C244.343 101.59 243.576 102.437 242.446 103.123C241.316 103.81 239.862 104.153 238.087 104.153C236.987 104.153 236.004 104.023 235.138 103.762C234.479 103.564 233.888 103.291 233.365 102.942C232.154 102.135 231.266 101.004 230.701 99.5518C230.544 99.138 230.41 98.7051 230.297 98.2542C230.182 97.7975 230.089 97.3222 230.019 96.8275H254.251V93.5582C254.251 90.5312 253.605 87.7464 252.314 85.2039C251.022 82.6204 249.145 80.542 246.684 78.968C244.262 77.3536 241.275 76.5464 237.723 76.5464C235.019 76.5464 232.597 77.0309 230.458 77.9995C228.361 78.9275 226.605 80.1988 225.192 81.8132C223.78 83.4276 222.69 85.2643 221.922 87.3228C221.196 89.3403 220.833 91.4592 220.833 93.6791V94.8899C220.833 97.0293 221.196 99.1277 221.922 101.186C222.69 103.204 223.78 105.04 225.192 106.695C226.645 108.31 228.44 109.601 230.58 110.57ZM230.186 90.8412C230.213 90.713 230.241 90.5867 230.272 90.4624C230.356 90.1202 230.453 89.7922 230.563 89.4788C230.625 89.3004 230.691 89.1263 230.762 88.9572C231.367 87.4637 232.255 86.3338 233.425 85.567C233.863 85.2804 234.337 85.0474 234.846 84.868C235.702 84.5673 236.662 84.4167 237.723 84.4167C239.379 84.4167 240.75 84.8003 241.84 85.567C242.97 86.2933 243.818 87.3628 244.383 88.7754C244.429 88.8894 244.472 89.0055 244.514 89.1229C244.581 89.3101 244.643 89.5022 244.701 89.6991C244.786 89.992 244.861 90.2952 244.927 90.6087C244.975 90.8397 245.016 91.0761 245.053 91.3184H230.093C230.121 91.1565 230.152 90.9976 230.186 90.8412Z" fill="Black"/>
<path d="M258.248 110.873V77.6968H265.937V86.0525C266.041 85.5558 266.16 85.0791 266.293 84.6219C266.407 84.2368 266.529 83.8654 266.663 83.5085C267.511 81.2483 268.782 79.5534 270.477 78.423C272.172 77.2527 274.25 76.6678 276.713 76.6678H277.136C279.639 76.6678 281.717 77.2527 283.372 78.423C285.067 79.5534 286.339 81.2483 287.186 83.5085L287.253 83.6792L287.31 83.8351C287.348 83.725 287.388 83.6163 287.428 83.5085C288.316 81.2483 289.608 79.5534 291.303 78.423C292.998 77.2527 295.077 76.6678 297.539 76.6678H297.963C300.464 76.6678 302.563 77.2527 304.258 78.423C305.994 79.5534 307.306 81.2483 308.193 83.5085C309.081 85.7688 309.526 88.5941 309.526 91.9842V110.873H299.839V91.4393C299.839 89.623 299.355 88.15 298.386 87.0201C297.458 85.8897 296.126 85.3248 294.391 85.3248C292.655 85.3248 291.283 85.9102 290.274 87.0805C289.265 88.2104 288.76 89.7239 288.76 91.6211V110.873H279.013V91.4393C279.013 89.623 278.529 88.15 277.56 87.0201C276.632 85.8897 275.32 85.3248 273.626 85.3248C271.849 85.3248 270.457 85.9102 269.448 87.0805C268.439 88.2104 267.934 89.7239 267.934 91.6211V110.873H258.248Z" fill="Black"/>
<path fill-rule="evenodd" clip-rule="evenodd" d="M335.4 104.48V110.873H343.088V90.5312C343.088 87.4637 342.483 84.9616 341.272 83.024C340.061 81.0465 338.286 79.5734 335.945 78.6049C333.645 77.6363 330.799 77.1518 327.409 77.1518C326.674 77.1518 325.907 77.1596 325.107 77.1757C324.635 77.1854 324.15 77.1976 323.655 77.2122C322.323 77.2527 321.031 77.3131 319.781 77.394L318.825 77.4584C318.334 77.4925 317.873 77.5261 317.439 77.5603C317.113 77.5856 316.804 77.611 316.512 77.6363V85.8093C317.763 85.7284 319.155 85.6475 320.689 85.567C321.118 85.5446 321.543 85.5236 321.965 85.5041C322.575 85.4759 323.176 85.4515 323.771 85.4301C324.241 85.413 324.707 85.3979 325.169 85.3852C326.621 85.3447 327.792 85.3248 328.68 85.3248C330.456 85.3248 331.747 85.7484 332.555 86.596C333.362 87.4437 333.765 88.7149 333.765 90.4103V90.5312H327.772C324.826 90.5312 322.223 90.9148 319.962 91.6815C317.702 92.4078 315.946 93.5582 314.696 95.1321C313.444 96.6661 312.819 98.6437 312.819 101.065C312.819 103.285 313.323 105.202 314.332 106.817C315.341 108.391 316.733 109.601 318.509 110.449C320.326 111.296 322.425 111.72 324.805 111.72C327.106 111.72 329.043 111.296 330.618 110.449C332.232 109.601 333.483 108.391 334.371 106.817C334.527 106.551 334.673 106.276 334.809 105.99C335.001 105.586 335.172 105.161 335.323 104.715L335.4 104.48ZM333.765 98.5832V95.9194H327.711C326.016 95.9194 324.705 96.343 323.777 97.1906C322.889 97.9978 322.444 99.1077 322.444 100.52C322.444 101.185 322.555 101.79 322.776 102.334C322.999 102.88 323.332 103.365 323.777 103.79C324.705 104.597 326.016 105 327.711 105C328.034 105 328.346 104.984 328.647 104.953C328.893 104.927 329.132 104.89 329.363 104.843C329.807 104.753 330.226 104.624 330.618 104.455C331.506 104.052 332.232 103.386 332.796 102.457C333.362 101.529 333.685 100.238 333.765 98.5832Z" fill="Black"/>
<path d="M348.885 110.873V77.6968H356.574V88.6472C356.942 85.5212 357.871 83.0006 359.359 81.0869C361.377 78.5444 364.282 77.2732 368.077 77.2732H369.348V85.6275H366.926C364.263 85.6275 362.204 86.3538 360.751 87.8068C359.298 89.2194 358.571 91.2779 358.571 93.9818V110.873H348.885Z" fill="Black"/>
<path d="M381.631 95.3744H384.84L395.313 110.873H406.21L392.93 91.839L403.849 77.6968H393.679L381.631 93.4714V66.6786H371.945V110.873H381.631V95.3744Z" fill="Black"/>
</svg>
